<svg width="315" height="251" viewBox="0 0 315 251" fill="none" xmlns="http://www.w3.org/2000/svg">
<path d="M186.426 69.7706L180.007 66.3367L180.487 66.0795L186.907 69.5138L186.426 69.7706Z" fill="#CBCBCB"/>
<path d="M180.827 69.7706L180.347 69.5138L186.766 66.0795L187.246 66.3367L180.827 69.7706Z" fill="#CBCBCB"/>
<path d="M133.049 43.1526L132.739 43.7614L134.552 44.6973L134.862 44.0884L133.049 43.1526Z" fill="#CBCBCB"/>
<path d="M170.647 63.3244L167.037 61.4618L167.347 60.8529L170.956 62.7156L170.647 63.3244ZM163.428 59.599L159.818 57.7362L160.128 57.1273L163.738 58.9902L163.428 59.599ZM156.209 55.8735L152.6 54.0108L152.909 53.4019L156.519 55.2646L156.209 55.8735ZM148.99 52.1481L145.381 50.2854L145.69 49.6765L149.3 51.5392L148.99 52.1481ZM141.771 48.4227L138.162 46.56L138.472 45.9511L142.081 47.8138L141.771 48.4227Z" fill="#CBCBCB"/>
<path d="M174.566 64.5783L174.256 65.1871L176.07 66.123L176.379 65.5142L174.566 64.5783Z" fill="#CBCBCB"/>
<path d="M37.6434 88.9459C37.6434 89.1595 37.6365 89.3714 37.6227 89.5815C37.5456 90.7932 37.2417 91.9793 36.7269 93.0772C36.7229 93.0866 36.7182 93.0953 36.7143 93.104C36.6903 93.1549 36.6657 93.2058 36.6404 93.2561C36.4873 93.5666 36.3175 93.8684 36.1316 94.1603C35.2828 95.5001 34.1194 96.6086 32.7441 97.3881C31.3688 98.1675 29.8241 98.5938 28.2465 98.6292L28.3416 104.138L29.582 103.48L29.8034 103.904L28.3509 104.674L28.5285 114.905L28.5305 115.041L27.5714 115.256L27.5734 115.119L27.8754 98.6299C26.6055 98.6115 25.3519 98.3393 24.1873 97.829C23.0228 97.3187 21.9705 96.5805 21.0916 95.6573C21.0311 95.5943 20.9712 95.5294 20.9127 95.4651L20.906 95.4577C20.1737 94.6534 19.5814 93.7304 19.1542 92.7276C19.1635 92.7383 19.1735 92.7483 19.1828 92.759C18.2172 90.485 18.1517 87.9253 18.9998 85.6042C19.8478 83.2832 21.5451 81.3766 23.7439 80.2753C23.7771 80.2585 23.8111 80.2424 23.8443 80.2257C26.0193 79.1706 28.5086 78.977 30.8186 79.6833C33.1287 80.3896 35.091 81.9441 36.3165 84.0389C36.3751 84.138 36.4316 84.2392 36.4861 84.341C37.2474 85.7546 37.6452 87.3377 37.6434 88.9459Z" fill="#E5E5E5"/>
<path d="M36.3487 93.1093C43.3107 93.1093 48.9546 87.4254 48.9546 80.4139C48.9546 73.4024 43.3107 67.7185 36.3487 67.7185C29.3867 67.7185 23.7429 73.4024 23.7429 80.4139C23.7429 87.4254 29.3867 93.1093 36.3487 93.1093Z" fill="#E5E5E5"/>
<path opacity="0.2" d="M27.041 71.9343C25.8651 74.7044 25.7056 77.8052 26.5909 80.6828C27.4763 83.5604 29.3487 86.0272 31.8737 87.6424C34.3988 89.2576 37.4118 89.9159 40.3744 89.4998C43.337 89.0837 46.0562 87.6201 48.046 85.3708C47.3277 87.0631 46.2527 88.578 44.8953 89.8104C43.538 91.0428 41.9308 91.9633 40.1852 92.508C38.4396 93.0528 36.5972 93.2088 34.7858 92.9653C32.9743 92.7218 31.2371 92.0846 29.6945 91.0978C28.1518 90.111 26.8407 88.7983 25.8518 87.2505C24.8629 85.7027 24.22 83.9569 23.9676 82.134C23.7152 80.3112 23.8593 78.4548 24.39 76.6936C24.9207 74.9325 25.8252 73.3085 27.041 71.9343Z" fill="#252525"/>
<path d="M37.0307 115.781L35.7432 115.417L35.7459 115.278L36.1317 94.1604L36.151 93.1074L36.1514 93.0767L36.2189 89.3871L36.3165 84.0396V84.0388L36.3829 80.4141H36.4184L36.4863 84.3411L36.5746 89.4524L36.6379 93.0791V93.1059L36.6406 93.2555V93.2562L36.7629 100.326L36.7756 101.028L37.0283 115.64L37.0307 115.781Z" fill="#252525"/>
<path d="M38.3883 99.4639L36.3045 100.569L36.5949 101.124L38.6787 100.019L38.3883 99.4639Z" fill="#252525"/>
<path d="M199.758 39.3271C183.847 38.3798 167.888 38.6268 152.014 40.0662C144.363 40.7627 136.59 41.515 129.08 43.1959C123.031 44.5497 116.011 46.8379 112.242 52.1675C111.453 53.2413 110.921 54.4845 110.688 55.7998C110.455 57.1152 110.527 58.4669 110.899 59.7494C111.798 62.7876 114.034 65.3165 116.414 67.2973C121.894 71.8562 128.692 74.509 134.765 78.1309C145.853 84.7438 156.001 93.657 162.515 104.98C165.381 109.962 168.107 116.587 164.916 122.077C161.789 127.456 154.809 129.309 149.117 130.183C141.983 131.278 134.634 130.981 127.469 130.367C119.615 129.63 111.804 128.478 104.07 126.916C88.9175 123.986 73.9031 120.258 58.5401 118.563C50.837 117.651 43.069 117.425 35.3264 117.887C28.3339 118.362 21.2816 119.476 14.7127 122.015C9.65083 123.972 4.25511 126.932 1.52088 131.87C-1.1148 136.629 -0.0868054 142.117 2.78312 146.508C6.23623 151.791 11.6209 155.412 17.2191 158.058C23.5932 161.071 30.4109 163.024 37.2373 164.684C40.6995 165.527 44.1804 166.288 47.6616 167.046C48.3878 167.204 48.6981 166.08 47.9693 165.922C40.9491 164.394 33.9087 162.861 27.0628 160.65C20.7278 158.603 14.2446 155.982 9.05677 151.684C4.85978 148.208 0.869298 143.13 1.11702 137.357C1.36675 131.536 6.21557 127.473 10.9681 124.971C16.9074 121.845 23.6552 120.323 30.2674 119.527C37.8384 118.677 45.4736 118.573 53.0647 119.215C68.3915 120.389 83.3757 123.905 98.403 126.972C113.002 129.952 128.056 132.711 143.017 131.946C148.947 131.643 155.301 130.788 160.536 127.773C162.934 126.393 165.095 124.447 166.314 121.914C167.411 119.504 167.758 116.816 167.309 114.203C166.46 108.464 163.076 103.143 159.699 98.5721C155.997 93.6142 151.703 89.1345 146.913 85.234C141.657 80.9738 135.99 77.2556 129.996 74.1352C126.818 72.4499 123.594 70.8293 120.565 68.8774C117.661 67.0058 114.796 64.7538 113.023 61.7156C111.489 59.0877 111.207 56.0885 112.805 53.4233C114.421 50.7277 117.205 48.8476 119.951 47.4737C126.566 44.1636 134.256 43.2776 141.494 42.3696C157.034 40.4269 172.695 39.6405 188.35 40.0168C192.155 40.1069 195.958 40.2656 199.758 40.4927C200.502 40.5368 200.499 39.371 199.758 39.3271V39.3271Z" fill="#252525"/>
<path d="M189.664 1.96298L192.067 0.0271115C190.2 -0.18034 189.433 0.845145 189.119 1.65682C187.661 1.04685 186.073 1.84625 186.073 1.84625L190.881 3.60436C190.639 2.9518 190.217 2.38242 189.664 1.96298Z" fill="#252525"/>
<path d="M178 8.09158L180.404 6.15571C178.537 5.94826 177.77 6.97374 177.456 7.78542C175.997 7.17544 174.409 7.97485 174.409 7.97485L179.218 9.73296C178.975 9.0804 178.553 8.51102 178 8.09158Z" fill="#252525"/>
<path d="M189.664 17.7952L192.067 15.8594C190.2 15.6519 189.433 16.6774 189.119 17.4891C187.661 16.8791 186.073 17.6785 186.073 17.6785L190.881 19.4366C190.639 18.7841 190.217 18.2147 189.664 17.7952Z" fill="#252525"/>
<path d="M153.634 20.6634C157.633 20.6634 160.875 17.3985 160.875 13.371C160.875 9.34353 157.633 6.07861 153.634 6.07861C149.635 6.07861 146.393 9.34353 146.393 13.371C146.393 17.3985 149.635 20.6634 153.634 20.6634Z" fill="#FF6583"/>
<path d="M176.341 35.8423H140.819C140.774 35.8428 140.73 35.8393 140.686 35.8317L157.487 6.52596C157.589 6.3434 157.738 6.19153 157.918 6.08586C158.098 5.98018 158.302 5.9245 158.51 5.9245C158.718 5.9245 158.923 5.98018 159.103 6.08586C159.283 6.19153 159.431 6.3434 159.534 6.52596L170.809 26.1917L171.349 27.1326L176.341 35.8423Z" fill="#FF3951"/>
<path d="M196.118 35.8426H165.395L171.348 27.1336L171.776 26.506L179.534 15.1566C179.671 14.983 179.843 14.8404 180.039 14.7381C180.234 14.6357 180.449 14.576 180.669 14.5628C180.889 14.5496 181.109 14.5831 181.315 14.6613C181.521 14.7394 181.709 14.8604 181.866 15.0164C181.906 15.0607 181.943 15.1076 181.977 15.1566L196.118 35.8426Z" fill="#FF3951"/>
<path d="M145.438 103.056C148.805 104.75 150.855 106.989 150.855 109.444C150.855 114.733 141.352 119.02 129.63 119.02C124.534 119.02 119.858 118.209 116.199 116.858C120.085 118.815 125.727 120.046 132.007 120.046C143.73 120.046 153.232 115.759 153.232 110.47C153.232 107.481 150.195 104.812 145.438 103.056Z" fill="#F1F1F1"/>
<path d="M152.928 106.689C156.727 108.601 159.04 111.127 159.04 113.897C159.04 119.865 148.317 124.703 135.09 124.703C129.339 124.703 124.063 123.788 119.935 122.263C124.32 124.471 130.685 125.861 137.773 125.861C151 125.861 161.722 121.023 161.722 115.055C161.722 111.682 158.295 108.67 152.928 106.689Z" fill="#F1F1F1"/>
<path d="M142.572 104.656C144.944 105.85 146.388 107.427 146.388 109.157C146.388 112.883 139.694 115.903 131.435 115.903C128.217 115.945 125.017 115.43 121.972 114.38C124.71 115.759 128.685 116.626 133.11 116.626C141.368 116.626 148.063 113.606 148.063 109.88C148.063 107.773 145.923 105.893 142.572 104.656Z" fill="#F1F1F1"/>
<path d="M109.242 103.972C109.242 103.972 109.764 111.645 124.706 111.645C139.648 111.645 144.11 103.972 144.11 103.972H109.242Z" fill="#252525"/>
<path d="M130.451 83.8392C128.294 82.1888 125.587 81.4429 122.896 81.7577C125.301 82.3416 127.424 83.7598 128.894 85.7635C130.364 87.7671 131.087 90.2281 130.935 92.7147C130.783 95.2012 129.766 97.5543 128.063 99.3611C126.36 101.168 124.079 102.313 121.621 102.595C123.972 103.167 126.447 102.906 128.629 101.856C130.811 100.806 132.568 99.0317 133.604 96.8309C134.641 94.6301 134.893 92.1372 134.318 89.7712C133.744 87.4053 132.379 85.3105 130.451 83.8392Z" fill="#252525"/>
<path d="M125.555 80.3729H124.536V104.796H125.555V80.3729Z" fill="#252525"/>
<path d="M192.51 62.2265L192.505 62.2171L192.491 61.6205L195.682 56.9536L192.495 61.174L192.483 61.3001L192.374 56.5299L195.131 51.6914L192.366 55.6919L192.395 45.8093L192.395 45.7764L192.394 45.8088L192.211 53.5976L189.699 50.4338L192.203 54.2686L192.148 58.5354L189.836 54.3712L192.14 59.1627L192.109 61.5353L192.024 68.1084L192.018 68.5996C192.231 68.6012 192.442 68.5976 192.651 68.5889L192.506 62.2752L192.51 62.2265Z" fill="#CBCBCB"/>
<path d="M177.228 64.2786L177.222 64.2692L177.209 63.6726L180.4 59.0057L177.213 63.2261L177.201 63.3522L177.092 58.582L179.849 53.7435L177.084 57.744L177.113 47.8614L177.113 47.8285L177.112 47.8608L176.929 55.6497L174.416 52.4858L176.921 56.3207L176.866 60.5875L174.554 56.4232L176.857 61.2148L176.827 63.5873L176.742 70.1604L176.736 70.6516C176.949 70.6532 177.16 70.6497 177.369 70.6409L177.224 64.3273L177.228 64.2786Z" fill="#CBCBCB"/>
<path d="M184.699 57.7803L184.694 57.7709L184.68 57.1743L187.872 52.5074L184.684 56.7278L184.672 56.8539L184.563 52.0837L187.32 47.2452L184.555 51.2457L184.584 41.3632L184.584 41.3303L184.583 41.3626L184.4 49.1514L181.888 45.9876L184.392 49.8224L184.337 54.0892L182.025 49.925L184.329 54.7165L184.298 57.0891L184.214 63.6622L184.208 64.1534C184.42 64.155 184.631 64.1514 184.84 64.1426L184.695 57.8291L184.699 57.7803Z" fill="#CBCBCB"/>
<path d="M58.484 171.348C60.7347 171.348 62.5592 169.511 62.5592 167.244C62.5592 164.978 60.7347 163.14 58.484 163.14C56.2333 163.14 54.4088 164.978 54.4088 167.244C54.4088 169.511 56.2333 171.348 58.484 171.348Z" fill="#FF3951"/>
<path d="M30.156 153.396C27.252 153.396 24.804 152.868 22.812 151.812C20.844 150.732 19.356 149.22 18.348 147.276C17.34 145.308 16.836 143.016 16.836 140.4C16.836 137.712 17.376 135.384 18.456 133.416C19.56 131.448 21.144 129.924 23.208 128.844C25.272 127.764 27.744 127.224 30.624 127.224C32.472 127.224 34.092 127.464 35.484 127.944C36.9 128.4 38.136 129.06 39.192 129.924L37.392 134.28C36.624 133.728 35.904 133.296 35.232 132.984C34.56 132.648 33.864 132.42 33.144 132.3C32.424 132.156 31.596 132.084 30.66 132.084C28.02 132.084 26.028 132.804 24.684 134.244C23.364 135.66 22.704 137.724 22.704 140.436C22.704 143.124 23.328 145.164 24.576 146.556C25.824 147.948 27.78 148.644 30.444 148.644C31.332 148.644 32.244 148.56 33.18 148.392C34.116 148.224 35.04 147.972 35.952 147.636L34.944 149.796V142.956H29.364V138.96H39.588V151.416C38.316 152.04 36.84 152.532 35.16 152.892C33.504 153.228 31.836 153.396 30.156 153.396ZM53.2362 153.396C50.0682 153.396 47.5962 152.544 45.8202 150.84C44.0442 149.136 43.1562 146.82 43.1562 143.892C43.1562 141.996 43.5282 140.34 44.2722 138.924C45.0402 137.508 46.0962 136.404 47.4402 135.612C48.8082 134.796 50.4042 134.388 52.2282 134.388C54.0282 134.388 55.5282 134.772 56.7282 135.54C57.9522 136.308 58.8642 137.388 59.4642 138.78C60.0882 140.148 60.4002 141.744 60.4002 143.568V144.828H47.6202V142.128H56.4402L55.8282 142.632C55.8282 141.12 55.5162 139.98 54.8922 139.212C54.2922 138.42 53.4162 138.024 52.2642 138.024C50.9922 138.024 50.0082 138.492 49.3122 139.428C48.6402 140.364 48.3042 141.708 48.3042 143.46V144.036C48.3042 145.812 48.7362 147.132 49.6002 147.996C50.4882 148.86 51.7602 149.292 53.4162 149.292C54.4002 149.292 55.3242 149.172 56.1882 148.932C57.0762 148.668 57.9162 148.26 58.7082 147.708L60.2202 151.308C59.3082 151.98 58.2522 152.496 57.0522 152.856C55.8762 153.216 54.6042 153.396 53.2362 153.396ZM72.2757 153.396C69.8997 153.396 68.1117 152.808 66.9117 151.632C65.7117 150.432 65.1117 148.644 65.1117 146.268V138.816H61.6557V134.748H65.1117V130.284L70.5477 128.952V134.748H75.2277V138.816H70.5477V145.98C70.5477 147.132 70.7877 147.924 71.2677 148.356C71.7477 148.788 72.3597 149.004 73.1037 149.004C73.5597 149.004 73.9317 148.98 74.2197 148.932C74.5317 148.86 74.8557 148.764 75.1917 148.644V152.856C74.7357 153.048 74.2557 153.18 73.7517 153.252C73.2477 153.348 72.7557 153.396 72.2757 153.396ZM97.7173 153.396C95.6773 153.396 93.7693 153.144 91.9933 152.64C90.2173 152.136 88.7053 151.44 87.4573 150.552L89.1133 146.16C89.9293 146.712 90.7933 147.18 91.7053 147.564C92.6173 147.948 93.5773 148.248 94.5853 148.464C95.5933 148.656 96.6493 148.752 97.7533 148.752C99.4813 148.752 100.705 148.488 101.425 147.96C102.169 147.432 102.541 146.76 102.541 145.944C102.541 145.2 102.289 144.636 101.785 144.252C101.305 143.844 100.417 143.496 99.1213 143.208L94.8733 142.344C92.5453 141.864 90.8053 141.048 89.6533 139.896C88.5013 138.744 87.9253 137.208 87.9253 135.288C87.9253 133.656 88.3573 132.24 89.2213 131.04C90.0853 129.84 91.2973 128.904 92.8573 128.232C94.4413 127.56 96.2893 127.224 98.4013 127.224C100.201 127.224 101.881 127.476 103.441 127.98C105.001 128.484 106.285 129.204 107.293 130.14L105.637 134.244C104.653 133.452 103.549 132.864 102.325 132.48C101.125 132.072 99.7813 131.868 98.2933 131.868C96.7333 131.868 95.5333 132.144 94.6933 132.696C93.8773 133.248 93.4693 134.004 93.4693 134.964C93.4693 135.684 93.7213 136.272 94.2253 136.728C94.7293 137.16 95.6173 137.508 96.8893 137.772L101.065 138.6C103.441 139.08 105.205 139.884 106.357 141.012C107.509 142.14 108.085 143.64 108.085 145.512C108.085 147.096 107.653 148.476 106.789 149.652C105.949 150.828 104.749 151.752 103.189 152.424C101.653 153.072 99.8293 153.396 97.7173 153.396ZM120.159 153.396C117.783 153.396 115.995 152.808 114.795 151.632C113.595 150.432 112.995 148.644 112.995 146.268V138.816H109.539V134.748H112.995V130.284L118.431 128.952V134.748H123.111V138.816H118.431V145.98C118.431 147.132 118.671 147.924 119.151 148.356C119.631 148.788 120.243 149.004 120.987 149.004C121.443 149.004 121.815 148.98 122.103 148.932C122.415 148.86 122.739 148.764 123.075 148.644V152.856C122.619 153.048 122.139 153.18 121.635 153.252C121.131 153.348 120.639 153.396 120.159 153.396ZM132.992 153.396C131.408 153.396 130.016 153.012 128.816 152.244C127.616 151.476 126.68 150.384 126.008 148.968C125.336 147.552 125 145.848 125 143.856C125 141.888 125.336 140.196 126.008 138.78C126.68 137.364 127.616 136.284 128.816 135.54C130.016 134.772 131.408 134.388 132.992 134.388C134.456 134.388 135.764 134.748 136.916 135.468C138.092 136.164 138.86 137.112 139.22 138.312H138.824L139.256 134.748H144.476C144.404 135.54 144.332 136.344 144.26 137.16C144.212 137.952 144.188 138.732 144.188 139.5V153H138.788L138.752 149.58H139.184C138.8 150.732 138.032 151.656 136.88 152.352C135.728 153.048 134.432 153.396 132.992 153.396ZM134.648 149.292C135.896 149.292 136.904 148.848 137.672 147.96C138.44 147.072 138.824 145.704 138.824 143.856C138.824 142.008 138.44 140.652 137.672 139.788C136.904 138.924 135.896 138.492 134.648 138.492C133.4 138.492 132.392 138.924 131.624 139.788C130.856 140.652 130.472 142.008 130.472 143.856C130.472 145.704 130.844 147.072 131.588 147.96C132.356 148.848 133.376 149.292 134.648 149.292ZM148.61 153V139.572C148.61 138.78 148.586 137.976 148.538 137.16C148.514 136.344 148.454 135.54 148.358 134.748H153.578L154.19 140.076H153.362C153.602 138.78 153.986 137.712 154.514 136.872C155.066 136.032 155.738 135.408 156.53 135C157.346 134.592 158.27 134.388 159.302 134.388C159.758 134.388 160.118 134.412 160.382 134.46C160.646 134.484 160.91 134.544 161.174 134.64L161.138 139.428C160.634 139.212 160.202 139.08 159.842 139.032C159.506 138.96 159.074 138.924 158.546 138.924C157.538 138.924 156.698 139.116 156.026 139.5C155.378 139.884 154.886 140.448 154.55 141.192C154.238 141.936 154.082 142.836 154.082 143.892V153H148.61ZM173.034 153.396C170.658 153.396 168.87 152.808 167.67 151.632C166.47 150.432 165.87 148.644 165.87 146.268V138.816H162.414V134.748H165.87V130.284L171.306 128.952V134.748H175.986V138.816H171.306V145.98C171.306 147.132 171.546 147.924 172.026 148.356C172.506 148.788 173.118 149.004 173.862 149.004C174.318 149.004 174.69 148.98 174.978 148.932C175.29 148.86 175.614 148.764 175.95 148.644V152.856C175.494 153.048 175.014 153.18 174.51 153.252C174.006 153.348 173.514 153.396 173.034 153.396ZM187.779 153.396C184.611 153.396 182.139 152.544 180.363 150.84C178.587 149.136 177.699 146.82 177.699 143.892C177.699 141.996 178.071 140.34 178.815 138.924C179.583 137.508 180.639 136.404 181.983 135.612C183.351 134.796 184.947 134.388 186.771 134.388C188.571 134.388 190.071 134.772 191.271 135.54C192.495 136.308 193.407 137.388 194.007 138.78C194.631 140.148 194.943 141.744 194.943 143.568V144.828H182.163V142.128H190.983L190.371 142.632C190.371 141.12 190.059 139.98 189.435 139.212C188.835 138.42 187.959 138.024 186.807 138.024C185.535 138.024 184.551 138.492 183.855 139.428C183.183 140.364 182.847 141.708 182.847 143.46V144.036C182.847 145.812 183.279 147.132 184.143 147.996C185.031 148.86 186.303 149.292 187.959 149.292C188.943 149.292 189.867 149.172 190.731 148.932C191.619 148.668 192.459 148.26 193.251 147.708L194.763 151.308C193.851 151.98 192.795 152.496 191.595 152.856C190.419 153.216 189.147 153.396 187.779 153.396ZM205.556 153.396C203.972 153.396 202.568 153.012 201.344 152.244C200.144 151.476 199.196 150.384 198.5 148.968C197.828 147.552 197.492 145.848 197.492 143.856C197.492 141.888 197.828 140.196 198.5 138.78C199.172 137.364 200.12 136.284 201.344 135.54C202.568 134.772 203.972 134.388 205.556 134.388C206.996 134.388 208.28 134.736 209.408 135.432C210.56 136.104 211.328 137.016 211.712 138.168H211.244V126.504H216.68V153H211.316V149.436H211.784C211.4 150.636 210.632 151.596 209.48 152.316C208.328 153.036 207.02 153.396 205.556 153.396ZM207.176 149.292C208.424 149.292 209.432 148.848 210.2 147.96C210.968 147.072 211.352 145.704 211.352 143.856C211.352 142.008 210.968 140.652 210.2 139.788C209.432 138.924 208.424 138.492 207.176 138.492C205.928 138.492 204.908 138.924 204.116 139.788C203.348 140.652 202.964 142.008 202.964 143.856C202.964 145.704 203.348 147.072 204.116 147.96C204.908 148.848 205.928 149.292 207.176 149.292Z" fill="#252525"/>
</svg>
