<svg width="316" height="251" viewBox="0 0 316 251" fill="none" xmlns="http://www.w3.org/2000/svg">
<path d="M186.426 69.7706L180.007 66.3367L180.487 66.0795L186.907 69.5138L186.426 69.7706Z" fill="#CBCBCB"/>
<path d="M180.827 69.7706L180.347 69.5138L186.766 66.0795L187.246 66.3367L180.827 69.7706Z" fill="#CBCBCB"/>
<path d="M133.049 43.1526L132.739 43.7614L134.552 44.6973L134.862 44.0884L133.049 43.1526Z" fill="#CBCBCB"/>
<path d="M170.647 63.3244L167.037 61.4618L167.347 60.8529L170.956 62.7156L170.647 63.3244ZM163.428 59.599L159.818 57.7362L160.128 57.1273L163.738 58.9902L163.428 59.599ZM156.209 55.8735L152.6 54.0108L152.909 53.4019L156.519 55.2646L156.209 55.8735ZM148.99 52.1481L145.381 50.2854L145.69 49.6765L149.3 51.5392L148.99 52.1481ZM141.771 48.4227L138.162 46.56L138.472 45.9511L142.081 47.8138L141.771 48.4227Z" fill="#CBCBCB"/>
<path d="M174.566 64.5783L174.256 65.1871L176.07 66.123L176.379 65.5142L174.566 64.5783Z" fill="#CBCBCB"/>
<path d="M37.6434 88.9459C37.6434 89.1595 37.6365 89.3714 37.6227 89.5815C37.5456 90.7932 37.2417 91.9793 36.7269 93.0772C36.7229 93.0866 36.7182 93.0953 36.7143 93.104C36.6903 93.1549 36.6657 93.2058 36.6404 93.2561C36.4873 93.5666 36.3175 93.8684 36.1316 94.1603C35.2828 95.5001 34.1194 96.6086 32.7441 97.3881C31.3688 98.1675 29.8241 98.5938 28.2465 98.6292L28.3416 104.138L29.582 103.48L29.8034 103.904L28.3509 104.674L28.5285 114.905L28.5305 115.041L27.5714 115.256L27.5734 115.119L27.8754 98.6299C26.6055 98.6115 25.3519 98.3393 24.1873 97.829C23.0228 97.3187 21.9705 96.5805 21.0916 95.6573C21.0311 95.5943 20.9712 95.5294 20.9127 95.4651L20.906 95.4577C20.1737 94.6534 19.5814 93.7304 19.1542 92.7276C19.1635 92.7383 19.1735 92.7483 19.1828 92.759C18.2172 90.485 18.1517 87.9253 18.9998 85.6042C19.8478 83.2832 21.5451 81.3766 23.7439 80.2753C23.7771 80.2585 23.8111 80.2424 23.8443 80.2257C26.0193 79.1706 28.5086 78.977 30.8186 79.6833C33.1287 80.3896 35.091 81.9441 36.3165 84.0389C36.3751 84.138 36.4316 84.2392 36.4861 84.341C37.2474 85.7546 37.6452 87.3377 37.6434 88.9459Z" fill="#E5E5E5"/>
<path d="M36.3487 93.1093C43.3107 93.1093 48.9546 87.4254 48.9546 80.4139C48.9546 73.4024 43.3107 67.7185 36.3487 67.7185C29.3867 67.7185 23.7429 73.4024 23.7429 80.4139C23.7429 87.4254 29.3867 93.1093 36.3487 93.1093Z" fill="#E5E5E5"/>
<path opacity="0.2" d="M27.041 71.9343C25.8651 74.7044 25.7056 77.8052 26.5909 80.6828C27.4763 83.5604 29.3487 86.0272 31.8738 87.6424C34.3988 89.2576 37.4118 89.9159 40.3744 89.4998C43.337 89.0837 46.0562 87.6201 48.046 85.3708C47.3277 87.0631 46.2527 88.578 44.8954 89.8104C43.538 91.0428 41.9309 91.9633 40.1852 92.508C38.4396 93.0528 36.5972 93.2088 34.7858 92.9653C32.9743 92.7218 31.2371 92.0846 29.6945 91.0978C28.1518 90.111 26.8407 88.7983 25.8518 87.2505C24.8629 85.7027 24.22 83.9569 23.9676 82.134C23.7152 80.3112 23.8594 78.4548 24.39 76.6936C24.9207 74.9325 25.8252 73.3085 27.041 71.9343Z" fill="#252525"/>
<path d="M37.0306 115.781L35.7432 115.417L35.7459 115.278L36.1317 94.1604L36.151 93.1074L36.1514 93.0767L36.2189 89.3871L36.3165 84.0396V84.0388L36.3829 80.4141H36.4184L36.4863 84.3411L36.5746 89.4524L36.6379 93.0791V93.1059L36.6406 93.2555V93.2562L36.7629 100.326L36.7756 101.028L37.0283 115.64L37.0306 115.781Z" fill="#252525"/>
<path d="M38.3883 99.4639L36.3045 100.569L36.5949 101.124L38.6787 100.019L38.3883 99.4639Z" fill="#252525"/>
<path d="M199.758 39.3271C183.847 38.3798 167.888 38.6268 152.014 40.0662C144.363 40.7627 136.59 41.515 129.08 43.1959C123.031 44.5497 116.011 46.8379 112.242 52.1675C111.453 53.2413 110.921 54.4845 110.688 55.7998C110.455 57.1152 110.527 58.4669 110.899 59.7494C111.798 62.7876 114.034 65.3165 116.414 67.2973C121.894 71.8562 128.692 74.509 134.765 78.1309C145.853 84.7438 156.001 93.657 162.515 104.98C165.381 109.962 168.107 116.587 164.916 122.077C161.789 127.456 154.809 129.309 149.117 130.183C141.983 131.278 134.634 130.981 127.469 130.367C119.615 129.63 111.804 128.478 104.07 126.916C88.9175 123.986 73.903 120.258 58.5401 118.563C50.837 117.651 43.069 117.425 35.3264 117.887C28.3339 118.362 21.2816 119.476 14.7127 122.015C9.65082 123.972 4.2551 126.932 1.52087 131.87C-1.11481 136.629 -0.086813 142.117 2.78311 146.508C6.23622 151.791 11.6209 155.412 17.2191 158.058C23.5932 161.071 30.4109 163.024 37.2373 164.684C40.6995 165.527 44.1804 166.288 47.6616 167.046C48.3878 167.204 48.6981 166.08 47.9693 165.922C40.9491 164.394 33.9087 162.861 27.0628 160.65C20.7277 158.603 14.2446 155.982 9.05676 151.684C4.85977 148.208 0.86929 143.13 1.11701 137.357C1.36674 131.536 6.21556 127.473 10.9681 124.971C16.9074 121.845 23.6552 120.323 30.2674 119.527C37.8384 118.677 45.4736 118.573 53.0647 119.215C68.3914 120.389 83.3757 123.905 98.403 126.972C113.002 129.952 128.056 132.711 143.017 131.946C148.947 131.643 155.301 130.788 160.536 127.773C162.934 126.393 165.095 124.447 166.314 121.914C167.411 119.504 167.758 116.816 167.309 114.203C166.46 108.464 163.076 103.143 159.699 98.5721C155.997 93.6142 151.703 89.1345 146.913 85.234C141.657 80.9738 135.99 77.2556 129.996 74.1352C126.818 72.4499 123.594 70.8293 120.565 68.8774C117.661 67.0058 114.796 64.7538 113.023 61.7156C111.489 59.0877 111.207 56.0885 112.805 53.4233C114.421 50.7277 117.205 48.8476 119.951 47.4737C126.566 44.1636 134.256 43.2776 141.494 42.3696C157.034 40.4269 172.695 39.6405 188.35 40.0168C192.155 40.1069 195.958 40.2656 199.758 40.4927C200.502 40.5368 200.499 39.371 199.758 39.3271V39.3271Z" fill="#252525"/>
<path d="M189.664 1.96298L192.067 0.0271115C190.2 -0.18034 189.433 0.845145 189.119 1.65682C187.661 1.04685 186.073 1.84625 186.073 1.84625L190.881 3.60436C190.639 2.9518 190.217 2.38242 189.664 1.96298Z" fill="#252525"/>
<path d="M178 8.09158L180.404 6.15571C178.537 5.94826 177.77 6.97374 177.456 7.78542C175.997 7.17544 174.409 7.97485 174.409 7.97485L179.218 9.73296C178.975 9.0804 178.553 8.51102 178 8.09158Z" fill="#252525"/>
<path d="M189.664 17.7952L192.067 15.8594C190.2 15.6519 189.433 16.6774 189.119 17.4891C187.661 16.8791 186.073 17.6785 186.073 17.6785L190.881 19.4366C190.639 18.7841 190.217 18.2147 189.664 17.7952Z" fill="#252525"/>
<path d="M153.634 20.6634C157.633 20.6634 160.875 17.3985 160.875 13.371C160.875 9.34353 157.633 6.07861 153.634 6.07861C149.635 6.07861 146.393 9.34353 146.393 13.371C146.393 17.3985 149.635 20.6634 153.634 20.6634Z" fill="#FF6583"/>
<path d="M176.341 35.8423H140.819C140.774 35.8428 140.73 35.8393 140.686 35.8317L157.487 6.52596C157.589 6.3434 157.738 6.19153 157.918 6.08586C158.097 5.98018 158.302 5.9245 158.51 5.9245C158.718 5.9245 158.923 5.98018 159.103 6.08586C159.283 6.19153 159.431 6.3434 159.534 6.52596L170.809 26.1917L171.349 27.1326L176.341 35.8423Z" fill="#FF3951"/>
<path d="M196.118 35.8426H165.395L171.348 27.1336L171.776 26.506L179.534 15.1566C179.671 14.983 179.843 14.8404 180.039 14.7381C180.234 14.6357 180.449 14.576 180.669 14.5628C180.889 14.5496 181.109 14.5831 181.315 14.6613C181.521 14.7394 181.709 14.8604 181.866 15.0164C181.906 15.0607 181.943 15.1076 181.977 15.1566L196.118 35.8426Z" fill="#FF3951"/>
<path d="M145.438 103.056C148.805 104.75 150.855 106.989 150.855 109.444C150.855 114.733 141.352 119.02 129.63 119.02C124.534 119.02 119.858 118.209 116.199 116.858C120.085 118.815 125.727 120.046 132.007 120.046C143.73 120.046 153.232 115.759 153.232 110.47C153.232 107.481 150.195 104.812 145.438 103.056Z" fill="#F1F1F1"/>
<path d="M152.928 106.689C156.727 108.601 159.04 111.127 159.04 113.897C159.04 119.865 148.317 124.703 135.09 124.703C129.339 124.703 124.063 123.788 119.935 122.263C124.32 124.471 130.685 125.861 137.773 125.861C151 125.861 161.722 121.023 161.722 115.055C161.722 111.682 158.295 108.67 152.928 106.689Z" fill="#F1F1F1"/>
<path d="M142.572 104.656C144.944 105.85 146.388 107.427 146.388 109.157C146.388 112.883 139.694 115.903 131.435 115.903C128.217 115.945 125.017 115.43 121.972 114.38C124.71 115.759 128.685 116.626 133.11 116.626C141.368 116.626 148.063 113.606 148.063 109.88C148.063 107.773 145.923 105.893 142.572 104.656Z" fill="#F1F1F1"/>
<path d="M109.242 103.972C109.242 103.972 109.764 111.645 124.706 111.645C139.648 111.645 144.11 103.972 144.11 103.972H109.242Z" fill="#252525"/>
<path d="M130.451 83.8392C128.294 82.1888 125.587 81.4429 122.896 81.7577C125.301 82.3416 127.424 83.7598 128.894 85.7635C130.364 87.7671 131.087 90.2281 130.935 92.7147C130.783 95.2012 129.766 97.5543 128.063 99.3611C126.36 101.168 124.079 102.313 121.621 102.595C123.972 103.167 126.447 102.906 128.629 101.856C130.811 100.806 132.568 99.0317 133.604 96.8309C134.641 94.6301 134.893 92.1372 134.318 89.7712C133.744 87.4053 132.379 85.3105 130.451 83.8392Z" fill="#252525"/>
<path d="M125.555 80.3729H124.536V104.796H125.555V80.3729Z" fill="#252525"/>
<path d="M192.51 62.2265L192.505 62.2171L192.491 61.6205L195.682 56.9536L192.495 61.174L192.483 61.3001L192.374 56.5299L195.131 51.6914L192.366 55.6919L192.395 45.8093L192.395 45.7764L192.394 45.8088L192.211 53.5976L189.699 50.4338L192.203 54.2686L192.148 58.5354L189.836 54.3712L192.14 59.1627L192.109 61.5353L192.024 68.1084L192.018 68.5996C192.231 68.6012 192.442 68.5976 192.651 68.5889L192.506 62.2752L192.51 62.2265Z" fill="#CBCBCB"/>
<path d="M177.228 64.2786L177.222 64.2692L177.209 63.6726L180.4 59.0057L177.213 63.2261L177.201 63.3522L177.092 58.582L179.849 53.7435L177.084 57.744L177.113 47.8614L177.113 47.8285L177.112 47.8608L176.929 55.6497L174.416 52.4858L176.921 56.3207L176.866 60.5875L174.554 56.4232L176.857 61.2148L176.827 63.5873L176.742 70.1604L176.736 70.6516C176.949 70.6532 177.16 70.6497 177.369 70.6409L177.224 64.3273L177.228 64.2786Z" fill="#CBCBCB"/>
<path d="M184.699 57.7803L184.694 57.7709L184.68 57.1743L187.872 52.5074L184.684 56.7278L184.672 56.8539L184.563 52.0837L187.32 47.2452L184.555 51.2457L184.584 41.3632L184.584 41.3303L184.583 41.3626L184.4 49.1514L181.888 45.9876L184.392 49.8224L184.337 54.0892L182.025 49.925L184.329 54.7165L184.298 57.0891L184.214 63.6622L184.208 64.1534C184.42 64.155 184.631 64.1514 184.84 64.1426L184.695 57.8291L184.699 57.7803Z" fill="#CBCBCB"/>
<path d="M58.484 171.348C60.7347 171.348 62.5592 169.511 62.5592 167.244C62.5592 164.978 60.7347 163.14 58.484 163.14C56.2333 163.14 54.4088 164.978 54.4088 167.244C54.4088 169.511 56.2333 171.348 58.484 171.348Z" fill="#FF3951"/>
<path d="M34.48 162L28.48 145.08H32.344L36.64 158.136H35.608L40.288 145.08H43.024L47.32 158.136H46.36L50.92 145.08H54.544L48.496 162H45.448L41.296 149.976H41.848L37.552 162H34.48ZM61.0846 162.264C58.9726 162.264 57.3246 161.696 56.1406 160.56C54.9566 159.424 54.3646 157.88 54.3646 155.928C54.3646 154.664 54.6126 153.56 55.1086 152.616C55.6206 151.672 56.3246 150.936 57.2206 150.408C58.1326 149.864 59.1966 149.592 60.4126 149.592C61.6126 149.592 62.6126 149.848 63.4126 150.36C64.2286 150.872 64.8366 151.592 65.2366 152.52C65.6526 153.432 65.8606 154.496 65.8606 155.712V156.552H57.3406V154.752H63.2206L62.8126 155.088C62.8126 154.08 62.6046 153.32 62.1886 152.808C61.7886 152.28 61.2046 152.016 60.4366 152.016C59.5886 152.016 58.9326 152.328 58.4686 152.952C58.0206 153.576 57.7966 154.472 57.7966 155.64V156.024C57.7966 157.208 58.0846 158.088 58.6606 158.664C59.2526 159.24 60.1006 159.528 61.2046 159.528C61.8606 159.528 62.4766 159.448 63.0526 159.288C63.6446 159.112 64.2046 158.84 64.7326 158.472L65.7406 160.872C65.1326 161.32 64.4286 161.664 63.6286 161.904C62.8446 162.144 61.9966 162.264 61.0846 162.264ZM68.1599 162V144.336H71.7839V162H68.1599ZM80.6018 162.264C79.3058 162.264 78.1698 162.008 77.1938 161.496C76.2178 160.984 75.4658 160.248 74.9378 159.288C74.4098 158.328 74.1458 157.192 74.1458 155.88C74.1458 154.552 74.4098 153.424 74.9378 152.496C75.4818 151.552 76.2338 150.832 77.1938 150.336C78.1698 149.84 79.3058 149.592 80.6018 149.592C81.4178 149.592 82.2098 149.712 82.9778 149.952C83.7618 150.192 84.4018 150.528 84.8978 150.96L83.8418 153.456C83.4418 153.088 82.9778 152.816 82.4498 152.64C81.9378 152.448 81.4418 152.352 80.9618 152.352C79.9858 152.352 79.2258 152.656 78.6818 153.264C78.1378 153.872 77.8658 154.752 77.8658 155.904C77.8658 157.056 78.1378 157.936 78.6818 158.544C79.2258 159.152 79.9858 159.456 80.9618 159.456C81.4258 159.456 81.9138 159.368 82.4258 159.192C82.9538 159.016 83.4258 158.752 83.8418 158.4L84.8978 160.872C84.3858 161.304 83.7378 161.648 82.9538 161.904C82.1858 162.144 81.4018 162.264 80.6018 162.264ZM92.4824 162.264C91.1864 162.264 90.0584 162.008 89.0984 161.496C88.1544 160.968 87.4184 160.232 86.8904 159.288C86.3784 158.344 86.1224 157.216 86.1224 155.904C86.1224 154.608 86.3784 153.488 86.8904 152.544C87.4184 151.6 88.1544 150.872 89.0984 150.36C90.0584 149.848 91.1864 149.592 92.4824 149.592C93.7784 149.592 94.9064 149.848 95.8664 150.36C96.8264 150.872 97.5624 151.6 98.0744 152.544C98.6024 153.488 98.8664 154.608 98.8664 155.904C98.8664 157.216 98.6024 158.344 98.0744 159.288C97.5624 160.232 96.8264 160.968 95.8664 161.496C94.9064 162.008 93.7784 162.264 92.4824 162.264ZM92.4824 159.528C93.3144 159.528 93.9704 159.232 94.4504 158.64C94.9464 158.048 95.1944 157.136 95.1944 155.904C95.1944 154.672 94.9464 153.768 94.4504 153.192C93.9704 152.616 93.3144 152.328 92.4824 152.328C91.6504 152.328 90.9864 152.616 90.4904 153.192C90.0104 153.768 89.7704 154.672 89.7704 155.904C89.7704 157.136 90.0104 158.048 90.4904 158.64C90.9864 159.232 91.6504 159.528 92.4824 159.528ZM101.207 162V153C101.207 152.488 101.191 151.968 101.159 151.44C101.127 150.896 101.079 150.36 101.015 149.832H104.495L104.759 152.088H104.471C104.823 151.32 105.343 150.712 106.031 150.264C106.719 149.816 107.535 149.592 108.479 149.592C109.407 149.592 110.183 149.816 110.807 150.264C111.447 150.696 111.903 151.376 112.175 152.304H111.791C112.143 151.472 112.703 150.816 113.471 150.336C114.239 149.84 115.111 149.592 116.087 149.592C117.463 149.592 118.487 150 119.159 150.816C119.831 151.632 120.167 152.912 120.167 154.656V162H116.543V154.776C116.543 153.928 116.407 153.32 116.135 152.952C115.863 152.584 115.423 152.4 114.815 152.4C114.095 152.4 113.527 152.656 113.111 153.168C112.695 153.68 112.487 154.384 112.487 155.28V162H108.863V154.776C108.863 153.928 108.727 153.32 108.455 152.952C108.183 152.584 107.743 152.4 107.135 152.4C106.415 152.4 105.847 152.656 105.431 153.168C105.031 153.68 104.831 154.384 104.831 155.28V162H101.207ZM129.194 162.264C127.082 162.264 125.434 161.696 124.25 160.56C123.066 159.424 122.474 157.88 122.474 155.928C122.474 154.664 122.722 153.56 123.218 152.616C123.73 151.672 124.434 150.936 125.33 150.408C126.242 149.864 127.306 149.592 128.522 149.592C129.722 149.592 130.722 149.848 131.522 150.36C132.338 150.872 132.946 151.592 133.346 152.52C133.762 153.432 133.97 154.496 133.97 155.712V156.552H125.45V154.752H131.33L130.922 155.088C130.922 154.08 130.714 153.32 130.298 152.808C129.898 152.28 129.314 152.016 128.546 152.016C127.698 152.016 127.042 152.328 126.578 152.952C126.13 153.576 125.906 154.472 125.906 155.64V156.024C125.906 157.208 126.194 158.088 126.77 158.664C127.362 159.24 128.21 159.528 129.314 159.528C129.97 159.528 130.586 159.448 131.162 159.288C131.754 159.112 132.314 158.84 132.842 158.472L133.85 160.872C133.242 161.32 132.538 161.664 131.738 161.904C130.954 162.144 130.106 162.264 129.194 162.264ZM150.483 162.264C149.507 162.264 148.635 162.024 147.867 161.544C147.115 161.064 146.611 160.424 146.355 159.624H146.619V162H143.043V144.336H146.667V152.112H146.355C146.627 151.344 147.139 150.736 147.891 150.288C148.659 149.824 149.523 149.592 150.483 149.592C151.555 149.592 152.491 149.848 153.291 150.36C154.091 150.872 154.715 151.6 155.163 152.544C155.627 153.488 155.859 154.624 155.859 155.952C155.859 157.264 155.627 158.392 155.163 159.336C154.715 160.28 154.083 161.008 153.267 161.52C152.467 162.016 151.539 162.264 150.483 162.264ZM149.403 159.528C150.219 159.528 150.891 159.24 151.419 158.664C151.947 158.088 152.211 157.184 152.211 155.952C152.211 154.72 151.947 153.808 151.419 153.216C150.891 152.624 150.219 152.328 149.403 152.328C148.571 152.328 147.891 152.616 147.363 153.192C146.851 153.768 146.595 154.672 146.595 155.904C146.595 157.136 146.851 158.048 147.363 158.64C147.891 159.232 148.571 159.528 149.403 159.528ZM162.935 162.264C161.879 162.264 160.951 162.008 160.151 161.496C159.351 160.984 158.727 160.256 158.279 159.312C157.831 158.368 157.607 157.232 157.607 155.904C157.607 154.592 157.831 153.464 158.279 152.52C158.727 151.576 159.351 150.856 160.151 150.36C160.951 149.848 161.879 149.592 162.935 149.592C163.911 149.592 164.783 149.832 165.551 150.312C166.335 150.776 166.847 151.408 167.087 152.208H166.823L167.111 149.832H170.591C170.543 150.36 170.495 150.896 170.447 151.44C170.415 151.968 170.399 152.488 170.399 153V162H166.799L166.775 159.72H167.063C166.807 160.488 166.295 161.104 165.527 161.568C164.759 162.032 163.895 162.264 162.935 162.264ZM164.039 159.528C164.871 159.528 165.543 159.232 166.055 158.64C166.567 158.048 166.823 157.136 166.823 155.904C166.823 154.672 166.567 153.768 166.055 153.192C165.543 152.616 164.871 152.328 164.039 152.328C163.207 152.328 162.535 152.616 162.023 153.192C161.511 153.768 161.255 154.672 161.255 155.904C161.255 157.136 161.503 158.048 161.999 158.64C162.511 159.232 163.191 159.528 164.039 159.528ZM179.227 162.264C177.931 162.264 176.795 162.008 175.819 161.496C174.843 160.984 174.091 160.248 173.563 159.288C173.035 158.328 172.771 157.192 172.771 155.88C172.771 154.552 173.035 153.424 173.563 152.496C174.107 151.552 174.859 150.832 175.819 150.336C176.795 149.84 177.931 149.592 179.227 149.592C180.043 149.592 180.835 149.712 181.603 149.952C182.387 150.192 183.027 150.528 183.523 150.96L182.467 153.456C182.067 153.088 181.603 152.816 181.075 152.64C180.563 152.448 180.067 152.352 179.587 152.352C178.611 152.352 177.851 152.656 177.307 153.264C176.763 153.872 176.491 154.752 176.491 155.904C176.491 157.056 176.763 157.936 177.307 158.544C177.851 159.152 178.611 159.456 179.587 159.456C180.051 159.456 180.539 159.368 181.051 159.192C181.579 159.016 182.051 158.752 182.467 158.4L183.523 160.872C183.011 161.304 182.363 161.648 181.579 161.904C180.811 162.144 180.027 162.264 179.227 162.264ZM185.582 162V144.336H189.206V154.896H189.254L193.766 149.832H198.086L192.254 156.312V154.992L198.398 162H193.958L189.254 156.72H189.206V162H185.582Z" fill="#252525"/>
</svg>
